<?xml version="1.0" encoding="UTF-8" standalone="no"?>
<svg
   version="1.1"
   width="980"
   height="330"
   id="svg2"
   xmlns="http://www.w3.org/2000/svg"
   xmlns:svg="http://www.w3.org/2000/svg">
  <defs
     id="defs8" />
  <g
     aria-label="Ææ"
     style="font-family:'TeX Gyre Bonum'"
     id="text8">
    <path
       d="m 587.5,221 -15.3,-5.85 c -16.65,23.85 -27.9,36.9 -42.75,49.95 -25.2,22.05 -60.3,35.55 -93.6,35.55 h -17.1 c -44.55,0 -50.85,-14.85 -50.85,-34.2 v -99.9 h 31.05 c 19.8,0 53.55,3.15 53.55,54.45 v 5.4 h 15.75 V 89.6 H 452.5 v 4.05 c 0,48.15 -25.65,53.55 -53.55,53.55 H 367.9 V 71.6 c 0,-29.7 11.25,-38.7 49.05,-38.7 65.7,0 108.45,19.8 139.5,65.25 l 15.75,-4.5 -33.75,-80.1 H 316.15 L 110.05,246.2 C 76.75,284.45 51.55,299.3 8.8,306.05 V 320 h 150.3 v -13.95 c -29.25,-1.35 -41.4,-7.2 -41.4,-19.35 0,-9 4.95,-17.55 19.8,-36 l 73.35,-84.15 H 322.9 v 88.65 c 0,36.9 -5.85,46.35 -29.25,49.5 l -11.25,1.35 V 320 H 549.25 Z M 322.9,147.2 H 229.3 L 322.9,37.4 Z"
       id="path4"
       style="fill:#c7d0e0;fill-opacity:1" />
    <path
       d="m 966.3,203.45 v -9.9 c 0,-76.5 -64.35,-95.85 -97.65,-95.85 -29.25,0 -52.2,9 -77.85,30.15 -16.65,-20.7 -40.5,-30.15 -76.05,-30.15 -51.75,0 -95.4,26.55 -95.4,57.6 0,10.8 9,19.35 20.25,19.35 14.4,0 23.4,-9.45 23.4,-23.85 v -7.2 c 0,-16.65 18.9,-27.9 46.8,-27.9 30.6,0 48.6,15.75 48.6,42.75 v 31.95 c -125.55,0 -150.75,46.8 -150.75,78.3 0,33.3 29.25,55.35 72.9,55.35 45,0 72,-16.2 93.6,-55.35 31.5,49.95 74.7,55.35 96.3,55.35 40.5,0 71.55,-18 94.95,-55.35 l -14.4,-7.65 c -2.7,4.5 -24.3,45 -71.1,45 -60.75,0 -74.25,-51.75 -76.05,-102.6 z m -207.9,12.15 c -0.45,33.3 -0.45,34.65 -4.05,45.9 -7.65,24.75 -32.4,42.3 -59.4,42.3 -26.1,0 -45.9,-18 -45.9,-41.4 0,-47.25 67.95,-55.8 109.35,-58.95 z m 163.35,-27 h -117.45 c 0.9,-6.3 1.8,-72.9 61.65,-72.9 34.2,0 55.8,25.65 55.8,66.6 z"
       id="path6"
       style="fill:#c7d0e0;fill-opacity:1" />
  </g>
</svg>
